<svg xmlns="http://www.w3.org/2000/svg" viewBox="0 0 160 160" width="160" height="160" role="img" aria-hidden="true" focusable="false"><circle cx="80" cy="80" r="78" fill="#F4E9D8"/><circle cx="80" cy="80" r="78" fill="none" stroke="#E7D9C1" stroke-width="3"/><line x1="30" y1="132" x2="130" y2="132" stroke="#3F6A76" stroke-width="5" stroke-linecap="round"/><path d="M80 60 q-18 4 -19 23 l-1 19 q14 5 20 5 q7 0 20 -5 l-1 -19 q-1 -19 -19 -23z" fill="#F4A261"/><path d="M63 68 L44 40" fill="none" stroke="#F2D3B8" stroke-width="9" stroke-linecap="round"/><path d="M97 68 L116 40" fill="none" stroke="#F2D3B8" stroke-width="9" stroke-linecap="round"/><path d="M72 105 L66 130" fill="none" stroke="#264653" stroke-width="11" stroke-linecap="round"/><path d="M88 105 L94 130" fill="none" stroke="#264653" stroke-width="11" stroke-linecap="round"/><circle cx="80" cy="44" r="16" fill="#F2D3B8"/><path d="M64 43 q1 -18 16 -18 q16 0 16 17 q-7 -7 -17 -5 q-9 2 -15 6z" fill="#8C8279"/><g stroke="#F4A261" stroke-width="4.5" stroke-linecap="round" fill="none"><path d="M32 40 l0 -13 M25.5 33.5 l13 0"/><path d="M130 36 l0 -11 M124.5 30.5 l11 0"/></g><circle cx="34" cy="74" r="4.5" fill="#E7D9C1"/><circle cx="128" cy="68" r="5.5" fill="#E7D9C1"/></svg>